<?xml version="1.0" standalone="no"?>
<!DOCTYPE svg PUBLIC "-//W3C//DTD SVG 20010904//EN"
 "http://www.w3.org/TR/2001/REC-SVG-20010904/DTD/svg10.dtd">
<svg version="1.0" xmlns="http://www.w3.org/2000/svg"
 width="1200.000000pt" height="1320.000000pt" viewBox="0 0 1200.000000 1320.000000"
 preserveAspectRatio="xMidYMid meet">

<g transform="translate(0.000000,1320.000000) scale(0.100000,-0.100000)"
fill="#000000" stroke="none">
<path d="M7 13193 c-12 -11 -8 -10448 3 -10543 40 -323 184 -613 417 -844 206
-203 453 -331 758 -393 71 -15 272 -17 1860 -23 l1780 -6 104 -27 c399 -105
717 -361 899 -722 79 -157 125 -332 139 -530 8 -98 9 -100 33 -100 24 0 25 2
33 100 27 369 177 686 434 925 173 160 371 265 623 332 l85 22 1780 6 c1588 6
1789 8 1860 23 409 83 731 294 947 622 105 158 168 311 211 508 l22 102 0
5275 0 5275 -5991 3 c-3295 1 -5994 -1 -5997 -5z m6060 -1198 c93 -28 153
-110 153 -211 0 -70 -27 -132 -76 -173 -111 -91 -282 -55 -343 72 -25 51 -28
141 -7 191 20 48 83 104 135 121 60 18 77 18 138 0z m-1087 -315 c70 -36 119
-119 120 -201 0 -64 -42 -142 -98 -182 -37 -27 -54 -32 -115 -35 -67 -3 -76
-1 -127 30 -101 62 -136 176 -86 284 53 115 193 162 306 104z m2230 8 c128
-48 178 -213 99 -331 -86 -130 -291 -127 -372 5 -114 185 68 402 273 326z
m-1413 -104 c20 -20 57 -46 84 -58 l47 -22 -44 -60 c-103 -138 -292 -244 -439
-244 -67 0 -68 -8 -19 -85 210 -325 358 -702 424 -1080 23 -133 47 -381 38
-391 -9 -9 -244 14 -378 37 -378 64 -754 209 -1066 410 -50 33 -93 59 -96 59
-3 0 -8 -31 -12 -69 -8 -92 -37 -182 -83 -260 -40 -67 -140 -174 -191 -204
l-31 -17 -19 43 c-11 25 -37 64 -58 87 l-39 43 25 16 c108 70 178 189 187 318
6 85 -11 168 -47 230 l-19 33 27 6 c60 13 117 39 151 69 l36 33 104 -78 c339
-255 728 -427 1135 -500 158 -29 146 -36 129 68 -65 410 -245 836 -493 1167
-41 55 -79 105 -83 113 -5 8 4 27 28 54 31 37 65 117 65 154 0 10 9 8 33 -6
18 -11 61 -27 97 -36 145 -37 293 8 400 123 33 35 60 68 60 73 0 17 9 11 47
-26z m466 7 c29 -50 105 -117 164 -146 115 -56 253 -57 364 -2 43 21 49 22 49
7 0 -38 34 -112 71 -154 l40 -45 -59 -78 c-277 -364 -473 -825 -527 -1240 -8
-64 -20 -63 175 -23 402 81 788 258 1106 506 l81 63 24 -25 c27 -29 109 -74
136 -74 10 0 24 -4 32 -9 11 -7 11 -12 -2 -32 -52 -81 -60 -242 -17 -352 23
-60 108 -163 161 -194 l28 -17 -43 -46 c-24 -26 -49 -63 -57 -83 -7 -20 -16
-37 -20 -37 -12 0 -90 61 -131 103 -95 97 -158 235 -173 379 l-7 66 -82 -53
c-390 -254 -848 -411 -1326 -454 -63 -6 -121 -11 -129 -11 -11 0 -13 18 -7
103 31 470 192 953 454 1362 56 87 55 95 -12 95 -144 0 -337 106 -437 239
l-49 64 49 22 c26 13 63 39 82 58 19 20 36 36 39 36 3 1 13 -12 23 -28z
m-2117 -730 c85 -39 146 -150 129 -239 -17 -92 -100 -174 -190 -188 -93 -13
-193 42 -239 133 -20 39 -21 132 -3 176 49 115 188 170 303 118z m3899 -2 c78
-37 125 -112 125 -201 0 -125 -96 -221 -221 -221 -205 -1 -301 244 -152 385
63 60 166 75 248 37z m-4199 -1123 c82 -38 128 -110 127 -201 0 -130 -94 -225
-223 -225 -189 0 -292 213 -176 364 34 46 117 86 175 86 27 0 67 -10 97 -24z
m4472 10 c96 -34 152 -112 152 -212 0 -158 -139 -258 -294 -212 -51 16 -119
82 -136 132 -20 62 -9 157 24 205 60 86 160 120 254 87z m-327 -333 c12 -25
40 -63 61 -83 l38 -37 -40 -28 c-61 -42 -109 -100 -144 -174 -29 -61 -31 -74
-30 -171 0 -92 3 -112 27 -164 15 -32 27 -60 27 -61 0 -1 -19 -6 -42 -9 -49
-8 -112 -42 -146 -79 l-23 -25 -102 77 c-349 263 -806 455 -1206 507 l-53 7 7
-44 c44 -282 126 -537 251 -788 87 -175 151 -280 256 -419 l78 -104 -30 -34
c-37 -43 -66 -99 -75 -146 l-7 -36 -56 25 c-100 47 -235 46 -339 -2 -60 -27
-151 -108 -178 -158 l-18 -34 -35 39 c-20 22 -58 51 -84 64 -54 27 -54 24 5
102 97 128 295 231 445 232 23 0 42 2 42 5 0 2 -32 55 -70 116 -230 368 -375
779 -424 1209 -9 74 -16 154 -16 178 l0 42 64 0 c151 0 440 -51 661 -116 243
-72 516 -197 721 -329 l99 -64 11 79 c21 140 72 253 156 345 40 45 131 123
145 125 0 0 11 -21 24 -47z m-3894 -6 c132 -97 220 -258 241 -436 l7 -60 100
65 c397 257 902 419 1398 446 l47 3 0 -36 c0 -212 -80 -603 -177 -867 -57
-154 -190 -423 -273 -550 -33 -51 -60 -95 -60 -98 0 -2 24 -4 53 -4 120 0 273
-64 375 -155 56 -52 129 -142 120 -149 -1 -2 -23 -14 -48 -26 -25 -12 -61 -38
-81 -57 l-36 -34 -37 49 c-43 60 -87 94 -164 130 -51 24 -68 27 -167 27 -104
0 -115 -2 -173 -31 -55 -27 -62 -29 -62 -12 0 32 -39 121 -70 160 l-31 38 69
93 c252 335 415 696 497 1103 32 154 32 164 1 164 -77 0 -377 -73 -541 -132
-232 -83 -528 -246 -727 -400 l-78 -61 -20 26 c-24 30 -133 87 -167 87 -12 0
-23 2 -23 4 0 2 12 30 27 62 25 52 28 71 28 159 0 91 -3 106 -31 166 -36 76
-91 141 -151 179 l-42 27 43 42 c24 24 52 61 61 82 10 21 21 39 25 39 4 0 34
-20 67 -43z m51 -795 c81 -37 126 -109 127 -202 0 -54 -5 -73 -28 -113 -92
-157 -315 -149 -398 14 -23 47 -25 135 -3 187 48 116 185 168 302 114z m3921
-15 c84 -56 123 -166 91 -262 -28 -86 -117 -148 -210 -148 -105 0 -187 62
-216 161 -31 107 22 220 126 267 56 25 157 16 209 -18z m-3104 -806 c181 -83
177 -339 -7 -415 -141 -59 -307 53 -308 207 -1 160 171 274 315 208z m2230 8
c26 -7 56 -28 85 -58 93 -95 93 -218 0 -311 -93 -93 -219 -94 -311 -1 -91 90
-93 216 -6 308 63 66 141 87 232 62z m-1079 -324 c84 -49 125 -149 100 -243
-16 -64 -37 -95 -87 -132 -143 -103 -352 3 -352 180 0 178 185 285 339 195z
m-2080 -1841 c1141 -434 1966 -744 1978 -741 15 3 3478 1320 3899 1482 16 7
17 -13 17 -327 l0 -333 -42 -16 c-24 -8 -908 -345 -1965 -748 l-1922 -732
-1965 748 -1966 748 0 333 c0 182 2 332 5 332 2 0 885 -336 1961 -746z m-1106
-310 l445 -169 -445 -3 c-245 -1 -451 0 -457 3 -10 3 -13 48 -13 176 0 133 3
170 13 167 6 -3 212 -81 457 -174z m6610 6 c0 -127 -3 -172 -12 -175 -7 -3
-213 -4 -457 -3 l-443 3 448 172 c247 94 452 172 457 172 4 1 7 -76 7 -169z
m-6140 -415 l0 -175 -465 0 -465 0 0 175 0 175 465 0 465 0 0 -175z m595 4
c247 -94 452 -173 454 -175 2 -2 -219 -4 -492 -4 l-497 0 0 175 0 175 42 0
c31 0 167 -47 493 -171z m4545 -4 l0 -175 -497 1 c-329 0 -490 4 -473 10 14 5
216 83 450 173 319 123 437 164 473 165 l47 1 0 -175z m990 0 l0 -175 -465 0
-465 0 0 175 0 175 465 0 465 0 0 -175z m-6630 -470 l0 -235 -220 0 -220 0 0
235 0 235 220 0 220 0 0 -235z m988 225 l252 0 0 -230 0 -230 -590 0 -590 0 0
237 0 236 338 -6 c185 -4 451 -7 590 -7z m5152 -225 l0 -235 -590 0 -590 0 0
230 0 230 368 3 c202 1 467 3 590 5 l222 2 0 -235z m500 0 l0 -235 -220 0
-220 0 0 235 0 235 220 0 220 0 0 -235z m-4554 96 l339 -129 3 -101 3 -101
-566 0 -565 0 0 230 0 230 224 0 224 0 338 -129z m2814 -101 l0 -230 -565 0
-565 0 0 99 0 99 93 36 c50 20 202 78 337 130 l245 94 228 1 227 1 0 -230z
m-2179 -141 c118 -44 216 -83 218 -85 2 -2 -98 -4 -222 -4 l-227 0 0 85 c0 47
4 85 9 85 5 0 105 -36 222 -81z m989 -4 l0 -85 -227 1 c-126 0 -223 2 -218 5
68 28 423 163 433 163 9 1 12 -22 12 -84z m-3050 -420 l0 -275 -545 0 -545 0
0 275 0 275 545 0 545 0 0 -275z m1250 0 l0 -275 -595 0 -595 0 0 275 0 275
595 0 595 0 0 -275z m1160 0 l0 -275 -545 0 -545 0 0 275 0 275 545 0 545 0 0
-275z m1150 0 l0 -275 -545 0 -545 0 0 275 0 275 545 0 545 0 0 -275z m1260 0
l0 -275 -595 0 -595 0 0 275 0 275 595 0 595 0 0 -275z m1150 0 l0 -275 -545
0 -545 0 0 275 0 275 545 0 545 0 0 -275z m-6630 -690 l0 -345 -215 0 -215 0
0 345 0 345 215 0 215 0 0 -345z m1240 0 l0 -345 -590 0 -590 0 0 345 0 345
590 0 590 0 0 -345z m1190 0 l0 -345 -565 0 -565 0 0 345 0 345 565 0 565 0 0
-345z m1280 0 l0 -345 -610 0 -610 0 0 345 0 345 610 0 610 0 0 -345z m1190 0
l0 -345 -565 0 -565 0 0 345 0 345 565 0 565 0 0 -345z m1240 0 l0 -345 -590
0 -590 0 0 345 0 345 590 0 590 0 0 -345z m490 0 l0 -345 -215 0 -215 0 0 345
0 345 215 0 215 0 0 -345z"/>
</g>
</svg>
